<svg width="12" height="11" viewBox="0 0 12 11" fill="none" xmlns="http://www.w3.org/2000/svg">
<path d="M4.86276 0.518241C5.08727 -0.172742 6.06483 -0.172743 6.28934 0.51824L7.09152 2.98709C7.19193 3.2961 7.47989 3.50532 7.80481 3.50532H10.4007C11.1273 3.50532 11.4293 4.43504 10.8416 4.86209L8.74142 6.38792C8.47856 6.5789 8.36856 6.91743 8.46897 7.22644L9.27115 9.69529C9.49566 10.3863 8.7048 10.9609 8.11702 10.5338L6.01689 9.00799C5.75402 8.817 5.39808 8.817 5.13521 9.00799L3.03508 10.5338C2.4473 10.9609 1.65644 10.3863 1.88095 9.69529L2.68313 7.22645C2.78354 6.91743 2.67354 6.5789 2.41068 6.38792L0.31055 4.86209C-0.277235 4.43504 0.0248458 3.50532 0.751388 3.50532H3.34729C3.67221 3.50532 3.96017 3.2961 4.06058 2.98709L4.86276 0.518241Z" fill="#FEC654"/>
</svg>
